<?xml version="1.0" standalone="no"?>
<!DOCTYPE svg PUBLIC "-//W3C//DTD SVG 20010904//EN"
 "http://www.w3.org/TR/2001/REC-SVG-20010904/DTD/svg10.dtd">
<svg version="1.0" xmlns="http://www.w3.org/2000/svg"
 width="100px" height="100px" viewBox="0 0 200.000000 200.000000"
 preserveAspectRatio="xMidYMid meet">

<g transform="translate(0.000000,200.000000) scale(0.100000,-0.100000)"
fill="#1be2e0" stroke="none">
<path d="M963 1335 c-57 -24 -70 -84 -29 -131 48 -57 146 -20 146 54 0 61 -61
100 -117 77z m71 -41 c34 -34 11 -84 -39 -84 -35 0 -55 20 -55 54 0 22 28 46
55 46 13 0 31 -7 39 -16z"/>
<path d="M1172 1195 c-41 -34 -44 -84 -7 -120 74 -75 192 31 123 109 -35 40
-78 43 -116 11z m88 -25 c24 -24 25 -38 4 -68 -18 -26 -50 -28 -76 -5 -25 22
-23 59 4 77 30 21 44 20 68 -4z"/>
<path d="M735 1198 c-32 -17 -45 -39 -45 -79 0 -29 6 -42 26 -58 73 -57 171
18 129 99 -23 44 -70 60 -110 38z m78 -42 c12 -18 3 -68 -15 -80 -11 -7 -26
-7 -45 0 -38 13 -45 65 -11 88 23 16 57 13 71 -8z"/>
<path d="M719 931 c-31 -31 -36 -59 -17 -94 42 -79 158 -52 158 37 0 26 -7 40
-31 60 -40 34 -74 33 -110 -3z m89 -17 c26 -18 28 -50 5 -76 -22 -25 -59 -23
-77 4 -21 30 -20 44 4 68 24 24 38 25 68 4z"/>
<path d="M1173 938 c-30 -34 -36 -63 -19 -96 42 -81 156 -53 156 38 0 72 -90
109 -137 58z m95 -20 c7 -7 12 -24 12 -38 0 -14 -5 -31 -12 -38 -7 -7 -24 -12
-38 -12 -14 0 -31 5 -38 12 -15 15 -15 61 0 76 15 15 61 15 76 0z"/>
<path d="M974 820 c-49 -20 -69 -85 -39 -127 47 -67 155 -32 155 51 0 52 -68
96 -116 76z m76 -51 c16 -28 5 -66 -21 -74 -53 -17 -95 27 -69 74 15 29 75 29
90 0z"/>
</g>
</svg>
